<mxfile host="app.diagrams.net" modified="2020-12-26T18:13:18.328Z" agent="5.0 (Windows NT 10.0; Win64; x64) AppleWebKit/537.36 (KHTML, like Gecko) Chrome/87.0.4280.88 Safari/537.36 Edg/87.0.664.66" etag="LKH9gI93bsuHnYvDGRAe" version="14.1.2" type="github">
  <diagram id="C5RBs43oDa-KdzZeNtuy" name="Page-1">
    <mxGraphModel dx="1038" dy="617" grid="1" gridSize="10" guides="1" tooltips="1" connect="1" arrows="1" fold="1" page="1" pageScale="1" pageWidth="827" pageHeight="1169" math="0" shadow="0">
      <root>
        <mxCell id="WIyWlLk6GJQsqaUBKTNV-0" />
        <mxCell id="WIyWlLk6GJQsqaUBKTNV-1" parent="WIyWlLk6GJQsqaUBKTNV-0" />
        <mxCell id="WIyWlLk6GJQsqaUBKTNV-2" value="" style="rounded=0;html=1;jettySize=auto;orthogonalLoop=1;fontSize=11;endArrow=block;endFill=0;endSize=8;strokeWidth=1;shadow=0;labelBackgroundColor=none;edgeStyle=orthogonalEdgeStyle;" parent="WIyWlLk6GJQsqaUBKTNV-1" source="WIyWlLk6GJQsqaUBKTNV-3" target="WIyWlLk6GJQsqaUBKTNV-6" edge="1">
          <mxGeometry relative="1" as="geometry" />
        </mxCell>
        <mxCell id="WIyWlLk6GJQsqaUBKTNV-3" value="Display the length of the word" style="rounded=1;whiteSpace=wrap;html=1;fontSize=12;glass=0;strokeWidth=1;shadow=0;" parent="WIyWlLk6GJQsqaUBKTNV-1" vertex="1">
          <mxGeometry x="160" y="80" width="120" height="40" as="geometry" />
        </mxCell>
        <mxCell id="WIyWlLk6GJQsqaUBKTNV-4" value="Yes" style="rounded=0;html=1;jettySize=auto;orthogonalLoop=1;fontSize=11;endArrow=block;endFill=0;endSize=8;strokeWidth=1;shadow=0;labelBackgroundColor=none;edgeStyle=orthogonalEdgeStyle;" parent="WIyWlLk6GJQsqaUBKTNV-1" source="WIyWlLk6GJQsqaUBKTNV-6" target="WIyWlLk6GJQsqaUBKTNV-10" edge="1">
          <mxGeometry y="20" relative="1" as="geometry">
            <mxPoint as="offset" />
          </mxGeometry>
        </mxCell>
        <mxCell id="WIyWlLk6GJQsqaUBKTNV-5" value="&lt;span style=&quot;font-size: 7px&quot;&gt;letter is not present&lt;/span&gt;&lt;br style=&quot;font-size: 7px&quot;&gt;&lt;span style=&quot;font-size: 7px&quot;&gt;&amp;nbsp;in the word&lt;/span&gt;" style="edgeStyle=orthogonalEdgeStyle;rounded=0;html=1;jettySize=auto;orthogonalLoop=1;fontSize=11;endArrow=block;endFill=0;endSize=8;strokeWidth=1;shadow=0;labelBackgroundColor=none;" parent="WIyWlLk6GJQsqaUBKTNV-1" source="WIyWlLk6GJQsqaUBKTNV-6" target="WIyWlLk6GJQsqaUBKTNV-7" edge="1">
          <mxGeometry x="-0.6" y="20" relative="1" as="geometry">
            <mxPoint as="offset" />
          </mxGeometry>
        </mxCell>
        <mxCell id="WIyWlLk6GJQsqaUBKTNV-6" value="&lt;font style=&quot;font-size: 8px&quot;&gt;player enters a letter,&lt;br&gt;From a-z&lt;/font&gt;" style="rhombus;whiteSpace=wrap;html=1;shadow=0;fontFamily=Helvetica;fontSize=12;align=center;strokeWidth=1;spacing=6;spacingTop=-4;" parent="WIyWlLk6GJQsqaUBKTNV-1" vertex="1">
          <mxGeometry x="170" y="170" width="100" height="80" as="geometry" />
        </mxCell>
        <mxCell id="WIyWlLk6GJQsqaUBKTNV-7" value="Hang the man&#39;s head" style="rounded=1;whiteSpace=wrap;html=1;fontSize=12;glass=0;strokeWidth=1;shadow=0;" parent="WIyWlLk6GJQsqaUBKTNV-1" vertex="1">
          <mxGeometry x="320" y="190" width="120" height="40" as="geometry" />
        </mxCell>
        <mxCell id="WIyWlLk6GJQsqaUBKTNV-9" value="&lt;span style=&quot;font-size: 7px&quot;&gt;letter is not present&lt;/span&gt;&lt;br style=&quot;font-size: 7px&quot;&gt;&lt;span style=&quot;font-size: 7px&quot;&gt;&amp;nbsp;in the word&lt;/span&gt;" style="edgeStyle=orthogonalEdgeStyle;rounded=0;html=1;jettySize=auto;orthogonalLoop=1;fontSize=11;endArrow=block;endFill=0;endSize=8;strokeWidth=1;shadow=0;labelBackgroundColor=none;" parent="WIyWlLk6GJQsqaUBKTNV-1" source="WIyWlLk6GJQsqaUBKTNV-10" target="WIyWlLk6GJQsqaUBKTNV-12" edge="1">
          <mxGeometry x="-0.2" y="20" relative="1" as="geometry">
            <mxPoint as="offset" />
          </mxGeometry>
        </mxCell>
        <mxCell id="WIyWlLk6GJQsqaUBKTNV-10" value="Again enter a letter" style="rhombus;whiteSpace=wrap;html=1;shadow=0;fontFamily=Helvetica;fontSize=12;align=center;strokeWidth=1;spacing=6;spacingTop=-4;" parent="WIyWlLk6GJQsqaUBKTNV-1" vertex="1">
          <mxGeometry x="170" y="290" width="100" height="80" as="geometry" />
        </mxCell>
        <mxCell id="WIyWlLk6GJQsqaUBKTNV-12" value="another body part hang" style="rounded=1;whiteSpace=wrap;html=1;fontSize=12;glass=0;strokeWidth=1;shadow=0;" parent="WIyWlLk6GJQsqaUBKTNV-1" vertex="1">
          <mxGeometry x="320" y="310" width="120" height="40" as="geometry" />
        </mxCell>
        <mxCell id="QOjyaEHm3OXW6is-EBzT-0" value="Generate a random word" style="rounded=1;whiteSpace=wrap;html=1;fontSize=12;glass=0;strokeWidth=1;shadow=0;" vertex="1" parent="WIyWlLk6GJQsqaUBKTNV-1">
          <mxGeometry x="160" y="10" width="120" height="40" as="geometry" />
        </mxCell>
        <mxCell id="QOjyaEHm3OXW6is-EBzT-1" value="" style="rounded=0;html=1;jettySize=auto;orthogonalLoop=1;fontSize=11;endArrow=block;endFill=0;endSize=8;strokeWidth=1;shadow=0;labelBackgroundColor=none;edgeStyle=orthogonalEdgeStyle;" edge="1" parent="WIyWlLk6GJQsqaUBKTNV-1">
          <mxGeometry relative="1" as="geometry">
            <mxPoint x="219.71" y="50" as="sourcePoint" />
            <mxPoint x="220" y="80" as="targetPoint" />
          </mxGeometry>
        </mxCell>
        <mxCell id="QOjyaEHm3OXW6is-EBzT-6" value="" style="endArrow=none;html=1;" edge="1" parent="WIyWlLk6GJQsqaUBKTNV-1">
          <mxGeometry width="50" height="50" relative="1" as="geometry">
            <mxPoint x="220" y="420" as="sourcePoint" />
            <mxPoint x="219.71" y="370" as="targetPoint" />
          </mxGeometry>
        </mxCell>
        <mxCell id="QOjyaEHm3OXW6is-EBzT-7" value="" style="endArrow=none;html=1;" edge="1" parent="WIyWlLk6GJQsqaUBKTNV-1">
          <mxGeometry width="50" height="50" relative="1" as="geometry">
            <mxPoint x="100" y="520" as="sourcePoint" />
            <mxPoint x="220" y="520" as="targetPoint" />
          </mxGeometry>
        </mxCell>
        <mxCell id="QOjyaEHm3OXW6is-EBzT-8" value="" style="endArrow=none;html=1;" edge="1" parent="WIyWlLk6GJQsqaUBKTNV-1">
          <mxGeometry width="50" height="50" relative="1" as="geometry">
            <mxPoint x="100" y="330" as="sourcePoint" />
            <mxPoint x="100" y="520" as="targetPoint" />
          </mxGeometry>
        </mxCell>
        <mxCell id="QOjyaEHm3OXW6is-EBzT-9" value="" style="endArrow=classic;html=1;" edge="1" parent="WIyWlLk6GJQsqaUBKTNV-1">
          <mxGeometry width="50" height="50" relative="1" as="geometry">
            <mxPoint x="100" y="330" as="sourcePoint" />
            <mxPoint x="170" y="330" as="targetPoint" />
          </mxGeometry>
        </mxCell>
        <mxCell id="QOjyaEHm3OXW6is-EBzT-10" value="&lt;font style=&quot;font-size: 11px&quot;&gt;Repeats until the man &lt;b style=&quot;background-color: rgb(212 , 225 , 245)&quot;&gt;hangs fully&lt;/b&gt;&lt;/font&gt;" style="rounded=1;whiteSpace=wrap;html=1;" vertex="1" parent="WIyWlLk6GJQsqaUBKTNV-1">
          <mxGeometry x="230" y="380" width="100" height="30" as="geometry" />
        </mxCell>
        <mxCell id="QOjyaEHm3OXW6is-EBzT-12" value="&lt;font style=&quot;font-size: 8px&quot;&gt;&lt;b&gt;word completed ?&lt;/b&gt;&lt;/font&gt;" style="rhombus;whiteSpace=wrap;html=1;shadow=0;fontFamily=Helvetica;fontSize=12;align=center;strokeWidth=1;spacing=6;spacingTop=-4;" vertex="1" parent="WIyWlLk6GJQsqaUBKTNV-1">
          <mxGeometry x="180" y="420" width="80" height="70" as="geometry" />
        </mxCell>
        <mxCell id="QOjyaEHm3OXW6is-EBzT-15" value="" style="endArrow=none;html=1;" edge="1" parent="WIyWlLk6GJQsqaUBKTNV-1">
          <mxGeometry width="50" height="50" relative="1" as="geometry">
            <mxPoint x="220" y="520" as="sourcePoint" />
            <mxPoint x="219.71000000000004" y="490" as="targetPoint" />
          </mxGeometry>
        </mxCell>
        <mxCell id="QOjyaEHm3OXW6is-EBzT-16" value="No" style="text;html=1;strokeColor=none;fillColor=none;align=center;verticalAlign=middle;whiteSpace=wrap;rounded=0;" vertex="1" parent="WIyWlLk6GJQsqaUBKTNV-1">
          <mxGeometry x="220" y="490" width="40" height="20" as="geometry" />
        </mxCell>
        <mxCell id="QOjyaEHm3OXW6is-EBzT-17" value="" style="endArrow=classic;html=1;exitX=1;exitY=0.5;exitDx=0;exitDy=0;" edge="1" parent="WIyWlLk6GJQsqaUBKTNV-1" source="QOjyaEHm3OXW6is-EBzT-12">
          <mxGeometry width="50" height="50" relative="1" as="geometry">
            <mxPoint x="260" y="500" as="sourcePoint" />
            <mxPoint x="320" y="455" as="targetPoint" />
          </mxGeometry>
        </mxCell>
        <mxCell id="QOjyaEHm3OXW6is-EBzT-18" value="Yes" style="text;html=1;strokeColor=none;fillColor=none;align=center;verticalAlign=middle;whiteSpace=wrap;rounded=0;" vertex="1" parent="WIyWlLk6GJQsqaUBKTNV-1">
          <mxGeometry x="260" y="430" width="40" height="20" as="geometry" />
        </mxCell>
        <mxCell id="QOjyaEHm3OXW6is-EBzT-19" value="&lt;b&gt;Player win&lt;/b&gt;" style="rounded=1;whiteSpace=wrap;html=1;fillColor=#A9C4EB;strokeColor=#FFFFFF;fontColor=#FF0080;" vertex="1" parent="WIyWlLk6GJQsqaUBKTNV-1">
          <mxGeometry x="320" y="445" width="80" height="20" as="geometry" />
        </mxCell>
        <mxCell id="QOjyaEHm3OXW6is-EBzT-20" value="" style="endArrow=classic;html=1;fontColor=#FF0080;" edge="1" parent="WIyWlLk6GJQsqaUBKTNV-1">
          <mxGeometry width="50" height="50" relative="1" as="geometry">
            <mxPoint x="220" y="520" as="sourcePoint" />
            <mxPoint x="220" y="560" as="targetPoint" />
          </mxGeometry>
        </mxCell>
        <mxCell id="QOjyaEHm3OXW6is-EBzT-21" value="&lt;font color=&quot;#6666ff&quot;&gt;Print the word&lt;/font&gt;" style="rounded=1;whiteSpace=wrap;html=1;strokeColor=#FFFFFF;fillColor=#A9C4EB;fontColor=#FF0080;" vertex="1" parent="WIyWlLk6GJQsqaUBKTNV-1">
          <mxGeometry x="160" y="560" width="130" height="20" as="geometry" />
        </mxCell>
      </root>
    </mxGraphModel>
  </diagram>
</mxfile>
